<!DOCTYPE svg PUBLIC "-//W3C//DTD SVG 1.1//EN" "http://www.w3.org/Graphics/SVG/1.1/DTD/svg11.dtd">
<svg version="1.1" xmlns="http://www.w3.org/2000/svg" xmlns:xlink="http://www.w3.org/1999/xlink" x="0px" y="0px" viewBox="0 0 1000 1000" enable-background="new 0 0 1000 1000" xml:space="preserve">
<metadata> Svg Vector Icons : http://www.onlinewebfonts.com/icon </metadata>
<g><g transform="translate(0.000000,511.000000) scale(0.100000,-0.100000)"><path d="M6633.3,110v-4900h331.8h331.8V110v4900h-331.8h-331.8V110z"/><path d="M5331.8,110v-3930.2h319h319V110v3930.2h-319h-319V110z"/><path d="M2703.1,110v-2934.9h331.8h331.8V110v2934.9h-331.8h-331.8V110z"/><path d="M7934.9,110v-2603.1h331.8h331.8V110v2603.1h-331.8h-331.8V110z"/><path d="M1401.6,110v-2299.4l326.7,7.6l324.1,7.7V110v2284.1l-324.1,7.7l-326.7,7.7V110z"/><path d="M4030.2,110v-1965.1h319h319V110v1965.1h-319h-319V110z"/><path d="M9241.6,117.7l7.7-1960l326.7-7.7l324.1-7.6V110v1965.1h-331.8h-331.8L9241.6,117.7z"/><path d="M100,110v-1301.6h331.8h331.8V110v1301.6H431.8H100V110z"/></g></g>
</svg>